<?xml version="1.0" encoding="UTF-8" standalone="no"?>
<!DOCTYPE svg PUBLIC "-//W3C//DTD SVG 1.1//EN"
 "http://www.w3.org/Graphics/SVG/1.1/DTD/svg11.dtd">
<!-- Generated by graphviz version 2.40.1 (20161225.0304)
 -->
<!-- Title: %3 Pages: 1 -->
<svg width="618pt" height="260pt"
 viewBox="0.00 0.00 617.76 260.00" xmlns="http://www.w3.org/2000/svg" xmlns:xlink="http://www.w3.org/1999/xlink">
<g id="graph0" class="graph" transform="scale(1 1) rotate(0) translate(4 256)">
<title>%3</title>
<polygon fill="#ffffff" stroke="transparent" points="-4,4 -4,-256 613.7645,-256 613.7645,4 -4,4"/>
<!-- [root] ibm_compute_vm_instance.tf&#45;demo -->
<g id="node1" class="node">
<title>[root] ibm_compute_vm_instance.tf&#45;demo</title>
<polygon fill="none" stroke="#000000" points="457.6594,-108 239.5336,-108 239.5336,-72 457.6594,-72 457.6594,-108"/>
<text text-anchor="middle" x="348.5965" y="-85.8" font-family="Times,serif" font-size="14.00" fill="#000000">ibm_compute_vm_instance.tf&#45;demo</text>
</g>
<!-- [root] provider.ibm -->
<g id="node2" class="node">
<title>[root] provider.ibm</title>
<polygon fill="none" stroke="#000000" points="348.5965,-36 269.976,-18 348.5965,0 427.2171,-18 348.5965,-36"/>
<text text-anchor="middle" x="348.5965" y="-13.8" font-family="Times,serif" font-size="14.00" fill="#000000">provider.ibm</text>
</g>
<!-- [root] ibm_compute_vm_instance.tf&#45;demo&#45;&gt;[root] provider.ibm -->
<g id="edge1" class="edge">
<title>[root] ibm_compute_vm_instance.tf&#45;demo&#45;&gt;[root] provider.ibm</title>
<path fill="none" stroke="#000000" d="M348.5965,-71.8314C348.5965,-64.131 348.5965,-54.9743 348.5965,-46.4166"/>
<polygon fill="#000000" stroke="#000000" points="352.0966,-46.4132 348.5965,-36.4133 345.0966,-46.4133 352.0966,-46.4132"/>
</g>
<!-- [root] meta.count&#45;boundary (count boundary fixup) -->
<g id="node3" class="node">
<title>[root] meta.count&#45;boundary (count boundary fixup)</title>
<ellipse fill="none" stroke="#000000" cx="191.5965" cy="-162" rx="191.6931" ry="18"/>
<text text-anchor="middle" x="191.5965" y="-157.8" font-family="Times,serif" font-size="14.00" fill="#000000">[root] meta.count&#45;boundary (count boundary fixup)</text>
</g>
<!-- [root] meta.count&#45;boundary (count boundary fixup)&#45;&gt;[root] ibm_compute_vm_instance.tf&#45;demo -->
<g id="edge2" class="edge">
<title>[root] meta.count&#45;boundary (count boundary fixup)&#45;&gt;[root] ibm_compute_vm_instance.tf&#45;demo</title>
<path fill="none" stroke="#000000" d="M230.4055,-144.2022C251.3815,-134.5827 277.4884,-122.6101 299.8266,-112.3658"/>
<polygon fill="#000000" stroke="#000000" points="301.5127,-115.4431 309.1435,-108.0931 298.5947,-109.0803 301.5127,-115.4431"/>
</g>
<!-- [root] provider.ibm (close) -->
<g id="node4" class="node">
<title>[root] provider.ibm (close)</title>
<ellipse fill="none" stroke="#000000" cx="505.5965" cy="-162" rx="104.3362" ry="18"/>
<text text-anchor="middle" x="505.5965" y="-157.8" font-family="Times,serif" font-size="14.00" fill="#000000">[root] provider.ibm (close)</text>
</g>
<!-- [root] provider.ibm (close)&#45;&gt;[root] ibm_compute_vm_instance.tf&#45;demo -->
<g id="edge3" class="edge">
<title>[root] provider.ibm (close)&#45;&gt;[root] ibm_compute_vm_instance.tf&#45;demo</title>
<path fill="none" stroke="#000000" d="M468.787,-145.1192C447.4385,-135.3288 420.2947,-122.8807 397.2064,-112.2924"/>
<polygon fill="#000000" stroke="#000000" points="398.4686,-109.0208 387.9199,-108.0336 395.5506,-115.3836 398.4686,-109.0208"/>
</g>
<!-- [root] root -->
<g id="node5" class="node">
<title>[root] root</title>
<ellipse fill="none" stroke="#000000" cx="348.5965" cy="-234" rx="46.8976" ry="18"/>
<text text-anchor="middle" x="348.5965" y="-229.8" font-family="Times,serif" font-size="14.00" fill="#000000">[root] root</text>
</g>
<!-- [root] root&#45;&gt;[root] meta.count&#45;boundary (count boundary fixup) -->
<g id="edge4" class="edge">
<title>[root] root&#45;&gt;[root] meta.count&#45;boundary (count boundary fixup)</title>
<path fill="none" stroke="#000000" d="M318.3253,-220.1177C295.9458,-209.8544 265.0277,-195.6754 239.3332,-183.892"/>
<polygon fill="#000000" stroke="#000000" points="240.6774,-180.658 230.1287,-179.6708 237.7594,-187.0208 240.6774,-180.658"/>
</g>
<!-- [root] root&#45;&gt;[root] provider.ibm (close) -->
<g id="edge5" class="edge">
<title>[root] root&#45;&gt;[root] provider.ibm (close)</title>
<path fill="none" stroke="#000000" d="M378.8677,-220.1177C401.7234,-209.6361 433.4849,-195.0703 459.4926,-183.1432"/>
<polygon fill="#000000" stroke="#000000" points="461.1563,-186.2308 468.787,-178.8808 458.2382,-179.868 461.1563,-186.2308"/>
</g>
</g>
</svg>
